<?xml version="1.0" encoding="UTF-8"?>
<svg xmlns="http://www.w3.org/2000/svg" xmlns:xlink="http://www.w3.org/1999/xlink" width="400px" height="136px" viewBox="0 0 401 136" version="1.1">
<g id="surface1">
<rect x="0" y="0" width="401" height="136" style="fill:rgb(100%,100%,100%);fill-opacity:1;stroke:none;"/>
<path style=" stroke:none;fill-rule:nonzero;fill:rgb(32.54902%,68.627451%,100%);fill-opacity:1;" d="M 53.03125 20.105469 C 54.96875 21.472656 56.648438 23.3125 58.214844 25.078125 C 58.941406 25.894531 59.71875 27.175781 60.703125 27.675781 C 62.734375 24.65625 65.277344 21.074219 69.277344 20.792969 C 77.6875 20.203125 82.394531 30.859375 76.929688 36.9375 C 74.484375 39.660156 70.988281 41.847656 67.359375 42.53125 C 65.191406 42.941406 62.898438 42.894531 60.703125 43.046875 C 53.753906 43.523438 46.765625 43.339844 39.828125 44.035156 C 35.394531 44.476562 30.585938 45.242188 26.964844 48.054688 C 17.777344 55.195312 24.160156 70.460938 35.203125 70.9375 L 35.203125 71.277344 C 27.90625 71.277344 19.554688 70.613281 13.203125 75.007812 C 8.550781 78.222656 7.511719 84.675781 10.691406 89.347656 C 12.414062 91.882812 15.210938 93.566406 18.054688 94.578125 C 26.082031 97.441406 34.820312 97.144531 43.214844 97.144531 L 89.363281 97.144531 C 93.066406 97.144531 96.652344 97.117188 99.382812 100.082031 C 103.027344 104.035156 103.195312 110.300781 99.175781 114.078125 C 94.613281 118.363281 87.386719 117.15625 85.121094 111.148438 C 84.371094 109.160156 84.078125 106.9375 84.058594 104.824219 L 74.242188 107.988281 C 74.242188 111.097656 74.871094 114.160156 76.097656 117.023438 C 80.460938 127.234375 94.269531 129.03125 103.015625 123.75 C 109.296875 119.957031 112.96875 112.335938 112.074219 105.050781 C 111.695312 101.972656 110.859375 99.144531 109.265625 96.464844 C 106.441406 91.726562 101.410156 88.453125 96.019531 87.476562 C 92.832031 86.898438 89.542969 87.089844 86.316406 87.089844 L 42.761719 87.089844 C 37.222656 87.089844 31.234375 87.648438 25.839844 86.167969 C 23.292969 85.472656 20.601562 83.765625 20.769531 80.765625 C 20.964844 77.367188 23.796875 75.742188 26.855469 75.21875 C 32.75 74.214844 38.941406 74.664062 44.90625 74.664062 C 56.050781 74.664062 67.175781 74.953125 78.304688 75.226562 C 83.902344 75.363281 89.519531 75.214844 95.117188 75.460938 C 98.71875 75.617188 102.335938 75.566406 105.949219 75.566406 C 111.445312 75.566406 116.683594 75.523438 121.40625 72.242188 C 123.511719 70.78125 125.316406 69.003906 126.746094 66.871094 C 134.140625 55.835938 128.289062 40.929688 115.988281 36.785156 C 113.671875 36.003906 111.226562 35.535156 108.769531 35.703125 C 104.1875 36.019531 100.511719 38.347656 97.375 41.566406 C 96.589844 42.375 94.757812 44.128906 94.636719 45.296875 C 94.5625 45.984375 95.695312 46.859375 96.113281 47.328125 C 97.28125 48.640625 98.441406 49.960938 99.597656 51.28125 C 100.179688 51.949219 100.734375 52.824219 101.546875 53.203125 C 102.828125 50.792969 104.832031 48.382812 107.300781 47.144531 C 112.296875 44.644531 118.167969 48.128906 119.707031 53.203125 C 120.761719 56.667969 119.492188 60.742188 116.78125 63.109375 C 113.652344 65.839844 109.941406 65.628906 106.0625 65.628906 C 103.085938 65.628906 100.117188 65.742188 97.148438 65.742188 L 48.066406 65.742188 C 43.34375 65.742188 38.25 65.179688 34.1875 62.539062 C 32.507812 61.445312 30.78125 59.992188 30.296875 57.945312 C 29.6875 55.394531 31.417969 53.246094 33.625 52.160156 C 37.109375 50.4375 41.914062 50.832031 45.695312 50.832031 L 53.59375 50.832031 C 65.410156 50.832031 79.421875 50.742188 86.765625 39.648438 C 88.042969 37.71875 88.863281 35.609375 89.199219 33.320312 C 90.855469 22.125 82.378906 12.175781 71.535156 10.382812 C 65.839844 9.441406 61.089844 11.847656 56.867188 15.476562 C 55.570312 16.589844 53.371094 18.335938 53.03125 20.105469 Z M 53.03125 20.105469 "/>
<path style=" stroke:none;fill-rule:nonzero;fill:rgb(12.941176%,12.941176%,12.941176%);fill-opacity:1;" d="M 316.828125 30.609375 L 305.769531 30.609375 L 303.964844 38.519531 L 314.796875 38.519531 C 311.996094 48.476562 309.816406 58.640625 307.308594 68.679688 C 306.050781 73.714844 304.472656 79.933594 307.046875 84.832031 C 310.902344 92.160156 322.046875 90.734375 328.113281 87.515625 C 329.6875 86.679688 332.433594 85.300781 333.335938 83.699219 C 333.675781 83.101562 333.152344 81.851562 333.011719 81.214844 C 332.566406 79.195312 331.886719 77.066406 331.722656 75.003906 C 330.664062 75.300781 329.65625 76.539062 328.789062 77.214844 C 326.269531 79.179688 322.050781 81.886719 318.746094 80.152344 C 315.636719 78.523438 316.71875 73.6875 317.195312 70.9375 C 318.570312 63.007812 321.070312 55.136719 323.019531 47.328125 L 324.570312 41.117188 C 324.734375 40.46875 324.773438 39.179688 325.261719 38.699219 C 325.828125 38.144531 328.019531 38.519531 328.789062 38.519531 L 339.054688 38.519531 L 341.199219 30.609375 L 327.207031 30.609375 L 330.636719 16.945312 L 332.058594 10.957031 C 329.230469 11.628906 326.40625 13.203125 323.710938 14.300781 C 322.855469 14.648438 321.121094 15.015625 320.535156 15.75 C 319.785156 16.683594 319.671875 18.832031 319.382812 19.992188 C 318.527344 23.410156 317.113281 27.101562 316.828125 30.609375 M 190.457031 34.789062 C 187.6875 32.835938 185.597656 30.832031 182.222656 29.867188 C 175.074219 27.828125 166.371094 29.066406 160.671875 34.03125 C 156.535156 37.636719 153.972656 42.84375 153.140625 48.234375 C 152.585938 51.832031 152.703125 55.671875 154.082031 59.078125 C 154.59375 60.339844 155.3125 61.503906 156.144531 62.578125 C 156.441406 62.960938 157.175781 63.5 157.121094 64.039062 C 157.054688 64.679688 155.414062 64.746094 154.917969 64.886719 C 152.695312 65.503906 150.746094 66.511719 149.171875 68.226562 C 146.667969 70.953125 146.675781 75.789062 149.171875 78.503906 C 151.417969 80.945312 155.449219 82.503906 158.753906 82.570312 L 158.753906 83.023438 C 153.214844 83.023438 147.730469 82.859375 142.730469 85.71875 C 135.761719 89.710938 134.21875 99.640625 139.589844 105.613281 C 142.558594 108.914062 146.859375 110.699219 151.082031 111.757812 C 161.191406 114.289062 174.417969 114.101562 183.238281 107.90625 C 188.085938 104.496094 190.457031 99.476562 190.457031 93.640625 C 190.457031 90.390625 189.46875 86.980469 186.960938 84.75 C 183.914062 82.042969 179.953125 80.707031 176.128906 79.519531 C 173.042969 78.558594 169.96875 77.550781 166.875 76.617188 C 163.914062 75.722656 160.773438 74.886719 158.074219 73.339844 C 156.863281 72.644531 155.542969 71.550781 155.484375 70.035156 C 155.398438 67.671875 157.714844 65.929688 159.992188 66.207031 C 160.738281 66.296875 161.453125 66.867188 162.136719 67.160156 C 163.449219 67.722656 164.800781 68.160156 166.199219 68.453125 C 173.113281 69.886719 181.242188 68.628906 186.507812 63.589844 C 191.703125 58.617188 194.4375 51.464844 193.945312 44.277344 C 193.855469 42.949219 193.617188 41.59375 193.203125 40.324219 C 192.65625 38.648438 191.910156 37.375 192.550781 35.582031 C 193.546875 32.789062 196.546875 31.742188 199.257812 32.285156 C 200.355469 32.503906 201.332031 33.128906 202.417969 33.320312 C 203.34375 31.0625 204.308594 28.8125 205.214844 26.542969 C 205.441406 25.988281 206.277344 24.707031 206.0625 24.105469 C 205.902344 23.664062 204.957031 23.523438 204.5625 23.425781 C 202.988281 23.03125 201.433594 22.929688 199.824219 22.929688 C 195.566406 22.929688 191.371094 25.085938 190.457031 29.59375 C 190.109375 31.320312 190.726562 33.109375 190.457031 34.789062 M 261.765625 69.582031 C 259.351562 69.90625 256.910156 70.699219 254.546875 71.289062 C 253.847656 71.464844 252.433594 71.542969 251.90625 72.050781 C 251.296875 72.636719 251.820312 75.027344 251.917969 75.792969 C 252.429688 79.746094 254.039062 83.367188 257.253906 85.859375 C 260.671875 88.507812 265.082031 89.613281 269.328125 89.921875 C 278.066406 90.566406 287.882812 88.613281 291.488281 79.523438 C 292.078125 78.027344 292.449219 76.382812 292.558594 74.777344 C 292.691406 72.84375 292.632812 70.808594 292.273438 68.902344 C 290.449219 59.15625 280.742188 56.453125 273.726562 51.226562 C 270.03125 48.472656 268.339844 43.289062 271.523438 39.421875 C 274.730469 35.519531 282.441406 36.105469 285.667969 39.648438 C 287.683594 41.863281 288.054688 44.800781 288.054688 47.667969 C 290.59375 47.144531 293.105469 46.445312 295.617188 45.816406 C 296.25 45.660156 297.921875 45.546875 298.320312 45.007812 C 298.789062 44.371094 298.277344 42.203125 298.140625 41.457031 C 297.402344 37.386719 294.957031 34.164062 291.441406 32.058594 C 287.683594 29.804688 283.125 29.03125 278.804688 29.03125 C 272.140625 29.03125 264.808594 30.683594 261.457031 37.164062 C 260.808594 38.417969 260.3125 39.738281 260.007812 41.117188 C 258.476562 48.082031 261.09375 54.953125 266.84375 59.171875 C 270.453125 61.820312 274.8125 63.320312 278.351562 66.066406 C 282.230469 69.074219 283.304688 75.414062 279.808594 79.183594 C 275.773438 83.535156 267.0625 82.574219 263.625 77.941406 C 261.800781 75.480469 261.765625 72.503906 261.765625 69.582031 M 211.332031 30.609375 C 209.46875 39.652344 207.039062 48.648438 204.800781 57.609375 C 203.210938 63.984375 201.402344 70.3125 201.402344 76.921875 C 201.402344 80.414062 202.140625 84.101562 204.582031 86.75 C 207.960938 90.417969 214.519531 90.863281 219.003906 89.347656 C 225.25 87.238281 228.886719 80.355469 231.367188 74.664062 C 232.1875 72.785156 233.042969 70.921875 233.808594 69.015625 C 234.128906 68.214844 234.253906 67.242188 235.25 67.210938 C 233.023438 74.066406 230.0625 81.125 230.0625 88.445312 L 240.214844 88.445312 C 240.507812 86.152344 240.558594 83.851562 240.941406 81.554688 C 243.8125 64.414062 248.78125 47.625 252.289062 30.609375 L 244.390625 30.609375 C 243.804688 30.609375 242.082031 30.320312 241.730469 30.875 C 241.101562 31.867188 241.023438 33.648438 240.738281 34.789062 C 239.933594 38.019531 239.191406 41.265625 238.425781 44.503906 C 236.011719 54.691406 233.8125 65.621094 228.066406 74.550781 C 225.542969 78.472656 219.363281 84.359375 214.605469 79.855469 C 214.011719 79.296875 213.515625 78.691406 213.1875 77.941406 C 211.277344 73.601562 212.914062 67.949219 213.996094 63.59375 C 215.089844 59.199219 216.265625 54.804688 217.222656 50.378906 C 218.644531 43.789062 220.226562 37.101562 222.050781 30.609375 L 211.332031 30.609375 M 346.390625 30.609375 C 346.675781 31.808594 346.628906 33.117188 346.746094 34.339844 C 347.03125 37.273438 347.253906 40.214844 347.539062 43.148438 C 348.433594 52.40625 349.125 61.679688 350.019531 70.9375 C 350.421875 75.109375 350.84375 79.292969 351.140625 83.476562 C 351.246094 84.992188 351.894531 87.078125 351.53125 88.558594 C 351.160156 90.074219 349.601562 91.757812 348.765625 93.078125 C 346.121094 97.246094 343.488281 102.40625 337.925781 102.78125 C 335.289062 102.957031 333.425781 101.488281 331.15625 100.53125 C 330.164062 102.632812 328.570312 104.539062 327.34375 106.519531 C 327.035156 107.015625 326.039062 108.035156 326.175781 108.652344 C 326.28125 109.136719 327.15625 109.480469 327.546875 109.695312 C 329.117188 110.570312 330.960938 111.140625 332.738281 111.390625 C 340.027344 112.40625 346.652344 110.121094 351.683594 104.710938 C 356.042969 100.023438 358.742188 93.652344 361.832031 88.105469 C 367.597656 77.757812 373.328125 67.390625 379.09375 57.042969 C 382.429688 51.0625 385.78125 45.085938 389.074219 39.082031 C 390.046875 37.308594 391.027344 35.535156 392.019531 33.773438 C 392.585938 32.773438 393.347656 31.71875 393.664062 30.609375 L 386.671875 30.609375 C 385.964844 30.609375 384.515625 30.335938 383.910156 30.726562 C 383.1875 31.199219 382.75 32.695312 382.335938 33.433594 C 380.949219 35.894531 379.589844 38.382812 378.292969 40.890625 C 373.996094 49.203125 369.214844 57.253906 365.035156 65.628906 C 363.171875 69.359375 361.457031 73.171875 359.882812 77.035156 C 359.507812 77.960938 358.972656 80.589844 357.898438 80.765625 C 358.90625 77.203125 359.761719 73.628906 359.925781 69.921875 C 360.101562 65.929688 359.535156 61.917969 359.261719 57.945312 C 358.859375 52.035156 358.40625 46.125 358 40.210938 C 357.78125 37.027344 357.335938 33.808594 357.335938 30.609375 Z M 346.390625 30.609375 "/>
<path style=" stroke:none;fill-rule:nonzero;fill:rgb(100%,100%,100%);fill-opacity:1;" d="M 174.210938 36.082031 C 166.929688 37.125 162.855469 45.339844 163.195312 52.1875 C 163.289062 54.09375 163.5 55.984375 164.371094 57.722656 C 166.007812 60.972656 169.503906 62.292969 172.96875 61.867188 C 180.183594 60.980469 184.730469 52.050781 183.945312 45.296875 C 183.78125 43.871094 183.734375 42.476562 183.1875 41.117188 C 181.714844 37.46875 178.082031 35.527344 174.210938 36.082031 M 158.867188 85.21875 C 155.640625 85.640625 152.445312 85.964844 149.726562 87.964844 C 145.785156 90.867188 145.371094 97.183594 149.050781 100.5 C 153.980469 104.9375 162.207031 105.34375 168.457031 104.566406 C 173.425781 103.945312 179.394531 101.570312 179.75 95.789062 C 179.832031 94.425781 179.632812 93.058594 178.777344 91.945312 C 177.558594 90.363281 175.589844 89.621094 173.757812 89.011719 C 170.644531 87.972656 167.4375 87.179688 164.28125 86.28125 C 162.539062 85.789062 160.703125 84.976562 158.867188 85.21875 Z M 158.867188 85.21875 "/>
</g>
</svg>
