<?xml version="1.0" standalone="yes"?>
<svg xmlns="http://www.w3.org/2000/svg" width="3554" height="1204">
<path style="fill:#ffffff; stroke:none;" d="M0 0L0 1204L3554 1204L3554 0L0 0z"/>
<path style="fill:#53afff; stroke:none;" d="M470 178C487.181 190.091 502.079 206.376 515.95 222C522.393 229.258 529.291 240.59 538 245C556.005 218.288 578.549 186.574 614 184.089C688.548 178.865 730.241 273.207 681.829 327C660.139 351.102 629.153 370.476 597 376.54C577.77 380.167 557.472 379.756 538 381.089C476.415 385.307 414.467 383.685 353 389.831C313.693 393.761 271.074 400.528 239 425.425C157.56 488.641 214.131 623.787 312 628L312 631C247.328 631 173.317 625.137 117 664.026C75.7851 692.486 66.5787 749.619 94.7461 791C110.022 813.442 134.803 828.332 160 837.308C231.154 862.655 308.592 860 383 860L678 860L792 860C824.834 860 856.617 859.773 880.829 886.015C913.11 921 914.62 976.5 878.996 1009.91C838.543 1047.85 774.498 1037.18 754.425 984C747.783 966.402 745.155 946.725 745 928L658 956C658 983.537 663.578 1010.65 674.427 1036C713.118 1126.4 835.487 1142.31 913 1095.55C968.668 1061.97 1001.21 994.502 993.285 930C989.938 902.752 982.537 877.719 968.396 854C943.386 812.051 898.783 783.058 851 774.424C822.754 769.321 793.592 771 765 771L379 771C329.9 771 276.836 775.942 229 762.848C206.436 756.672 182.588 741.569 184.093 715C185.797 684.927 210.901 670.529 238 665.921C290.262 657.032 345.12 661 398 661C496.765 661 595.378 663.57 694 665.985C743.622 667.201 793.406 665.868 843 668.039C874.93 669.438 906.99 669 939 669C987.724 669 1034.15 668.589 1076 639.565C1094.65 626.628 1110.66 610.881 1123.33 592C1188.86 494.324 1136.99 362.355 1028 325.667C1007.44 318.746 985.783 314.598 964 316.089C923.397 318.87 890.816 339.499 863.015 368C856.058 375.131 839.832 390.687 838.738 401C838.091 407.105 848.13 414.851 851.834 419C862.193 430.602 872.461 442.305 882.715 454C887.877 459.887 892.784 467.633 900 471C911.352 449.675 929.094 428.323 951 417.37C995.253 395.244 1047.31 426.089 1060.96 471C1070.29 501.695 1059.05 537.756 1035 558.711C1007.28 582.862 974.397 581 940 581C913.622 581 887.327 582 861 582L426 582C384.147 582 338.993 577.023 303 553.655C288.097 543.979 272.81 531.11 268.503 513C263.125 490.388 278.468 471.384 298 461.756C328.882 446.533 371.469 450 405 450L475 450C579.721 450 703.912 449.232 768.996 351C780.31 333.924 787.574 315.26 790.573 295C805.247 195.857 730.113 107.802 634 91.9197C583.516 83.5775 541.428 104.88 504 137.001C492.512 146.86 473.033 162.323 470 178z"/>
<path style="fill:#212121; stroke:none;" d="M2808 271L2710 271L2694 341L2790 341C2765.17 429.162 2745.84 519.145 2723.63 608C2712.48 652.605 2698.51 707.643 2721.32 751C2755.47 815.904 2854.26 803.26 2908 774.78C2921.97 767.378 2946.32 755.146 2954.31 740.996C2957.31 735.677 2952.67 724.64 2951.42 719C2947.47 701.118 2941.45 682.248 2940 664C2930.62 666.632 2921.69 677.582 2914 683.576C2891.68 700.967 2854.28 724.945 2825 709.598C2797.45 695.158 2807.02 652.339 2811.25 628C2823.44 557.814 2845.59 488.115 2862.87 419L2876.63 364C2878.06 358.282 2878.41 346.845 2882.73 342.603C2887.75 337.676 2907.19 341 2914 341L3005 341L3024 271L2900 271L2930.37 150L2943 97C2917.93 102.94 2892.88 116.884 2869 126.603C2861.4 129.698 2846.06 132.937 2840.85 139.418C2834.21 147.697 2833.2 166.724 2830.63 177C2823.06 207.253 2810.54 239.92 2808 271M1688 308C1663.45 290.703 1644.91 272.964 1615 264.427C1551.66 246.352 1474.52 257.336 1424 301.289C1387.33 333.198 1364.64 379.281 1357.27 427C1352.36 458.862 1353.39 492.852 1365.6 523C1370.13 534.176 1376.52 544.486 1383.89 554C1386.52 557.399 1393.03 562.177 1392.53 566.941C1391.95 572.589 1377.4 573.202 1373 574.424C1353.32 579.895 1336.05 588.817 1322.09 604C1299.9 628.148 1299.96 670.964 1322.09 695C1341.98 716.599 1377.73 730.396 1407 731L1407 735C1357.92 735 1309.32 733.533 1265 758.873C1203.22 794.199 1189.56 882.098 1237.17 935C1263.47 964.223 1301.59 980.019 1339 989.373C1428.61 1011.78 1545.84 1010.14 1624 955.279C1666.99 925.1 1688 880.653 1688 829C1688 800.216 1679.24 770.034 1657 750.286C1630 726.322 1594.89 714.505 1561 703.975C1533.65 695.475 1506.42 686.542 1479 678.28C1452.76 670.375 1424.9 662.985 1401 649.28C1390.27 643.13 1378.54 633.439 1378.04 620C1377.27 599.109 1397.79 583.687 1418 586.133C1424.6 586.932 1430.95 591.981 1437 594.573C1448.62 599.547 1460.62 603.432 1473 605.997C1534.27 618.688 1606.33 607.572 1653 562.961C1699.05 518.945 1723.27 455.63 1718.91 392C1718.1 380.211 1715.99 368.243 1712.33 357C1707.49 342.141 1700.87 330.872 1706.55 315C1715.38 290.277 1741.98 281.004 1766 285.808C1775.71 287.749 1784.39 293.293 1794 295C1802.21 274.982 1810.74 255.085 1818.8 235C1820.78 230.059 1828.21 218.713 1826.29 213.418C1824.87 209.505 1816.49 208.249 1813 207.375C1799.07 203.887 1785.29 203 1771 203C1733.27 203 1696.09 222.085 1688 262C1684.91 277.275 1690.37 293.106 1688 308M2320 616C2298.58 618.884 2276.96 625.886 2256 631.127C2249.81 632.674 2237.27 633.362 2232.6 637.854C2227.22 643.033 2231.84 664.21 2232.72 671C2237.26 705.989 2251.5 738.046 2280 760.112C2310.3 783.57 2349.37 793.33 2387 796.089C2464.47 801.768 2551.46 784.495 2583.4 704C2588.64 690.784 2591.94 676.196 2592.91 662C2594.08 644.882 2593.55 626.854 2590.39 610C2574.22 523.722 2488.16 499.777 2426 453.522C2393.23 429.135 2378.27 383.235 2406.46 349.001C2434.91 314.468 2503.25 319.625 2531.83 351.004C2549.68 370.598 2553 396.602 2553 422C2575.47 417.362 2597.74 411.191 2620 405.627C2625.63 404.219 2640.42 403.238 2643.97 398.436C2648.13 392.813 2643.59 373.613 2642.39 367C2635.84 330.966 2614.16 302.455 2583 283.8C2549.7 263.859 2509.3 257 2471 257C2411.95 257 2346.94 271.642 2317.26 329C2311.52 340.098 2307.12 351.784 2304.42 364C2290.82 425.679 2314.05 486.483 2365 523.845C2396.99 547.306 2435.62 560.58 2467 584.888C2501.37 611.508 2510.87 667.636 2479.91 701C2444.15 739.528 2366.95 731.015 2336.48 690C2320.29 668.212 2320 641.878 2320 616M1873 271C1856.48 351.048 1834.95 430.699 1815.13 510C1801.02 566.446 1785 622.488 1785 681C1785 711.901 1791.53 744.529 1813.17 767.985C1843.13 800.455 1901.26 804.406 1941 790.996C1996.35 772.32 2028.6 711.37 2050.58 661C2057.84 644.353 2065.43 627.866 2072.2 611C2075.04 603.918 2076.15 595.29 2085 595C2065.25 655.705 2039 718.209 2039 783L2129 783C2131.57 762.691 2132.03 742.323 2135.44 722C2160.88 570.26 2204.92 421.631 2236 271L2166 271C2160.81 271 2145.54 268.415 2142.43 273.318C2136.84 282.117 2136.14 297.878 2133.63 308C2126.51 336.592 2119.91 365.331 2113.12 394C2091.74 484.179 2072.23 580.939 2021.31 660C1998.95 694.714 1944.18 746.836 1902 706.957C1896.76 702.004 1892.36 696.637 1889.44 690C1872.51 651.584 1887.04 601.55 1896.63 563C1906.31 524.093 1916.74 485.186 1925.21 446C1937.82 387.658 1951.82 328.449 1968 271L1873 271M3070 271C3072.52 281.596 3072.12 293.168 3073.17 304C3075.68 329.986 3077.65 356.015 3080.17 382C3088.1 463.943 3094.24 546.059 3102.17 628C3105.75 664.95 3109.49 701.969 3112.09 739C3113.03 752.422 3118.8 770.906 3115.58 784C3112.28 797.426 3098.46 812.323 3091.05 824C3067.63 860.928 3044.28 906.612 2995 909.911C2971.62 911.476 2955.1 898.453 2935 890C2926.19 908.617 2912.07 925.495 2901.19 943C2898.46 947.401 2889.63 956.434 2890.83 961.896C2891.77 966.182 2899.54 969.215 2903 971.138C2916.92 978.887 2933.26 983.936 2949 986.13C3013.6 995.136 3072.31 974.9 3116.91 927C3155.54 885.517 3179.47 829.094 3206.86 780C3257.97 688.391 3308.76 596.609 3359.86 505C3389.41 452.039 3419.11 399.155 3448.31 346C3456.93 330.295 3465.61 314.6 3474.42 299C3479.43 290.141 3486.17 280.8 3489 271L3427 271C3420.74 271 3407.89 268.551 3402.53 272.028C3396.12 276.189 3392.27 289.443 3388.58 296C3376.3 317.772 3364.23 339.804 3352.74 362C3314.67 435.581 3272.31 506.873 3235.25 581C3218.73 614.031 3203.53 647.787 3189.6 682C3186.27 690.179 3181.53 713.445 3172 715C3180.94 683.485 3188.52 651.837 3189.96 619C3191.51 583.681 3186.5 548.146 3184.09 513C3180.5 460.655 3176.51 408.345 3172.91 356C3170.97 327.792 3167 299.292 3167 271L3070 271z"/>
<path style="fill:#ffffff; stroke:none;" d="M1544 319.428C1479.48 328.668 1443.37 401.387 1446.38 462C1447.21 478.893 1449.08 495.633 1456.81 511C1471.3 539.79 1502.29 551.488 1533 547.714C1596.94 539.857 1637.25 460.813 1630.29 401C1628.82 388.371 1628.41 376.043 1623.55 364C1610.5 331.702 1578.31 314.516 1544 319.428M1408 754.424C1379.43 758.175 1351.09 761.037 1327 778.756C1292.08 804.44 1288.39 860.375 1321.01 889.714C1364.71 929.008 1437.6 932.608 1493 925.715C1537.06 920.233 1589.94 899.207 1593.08 848C1593.83 835.943 1592.06 823.841 1584.47 814C1573.67 799.988 1556.21 793.402 1540 788C1512.41 778.805 1483.98 771.789 1456 763.86C1440.55 759.48 1424.29 752.285 1408 754.424z"/>
</svg>
