<?xml version="1.0" encoding="UTF-8"?>
<svg xmlns="http://www.w3.org/2000/svg" xmlns:xlink="http://www.w3.org/1999/xlink" width="600px" height="203px" viewBox="0 0 599 203" version="1.1">
<g id="surface1">
<rect x="0" y="0" width="599" height="203" style="fill:rgb(100%,100%,100%);fill-opacity:1;stroke:none;"/>
<path style=" stroke:none;fill-rule:nonzero;fill:rgb(32.54902%,68.627451%,100%);fill-opacity:1;" d="M 79.214844 30.011719 C 82.109375 32.050781 84.621094 34.796875 86.960938 37.429688 C 88.046875 38.652344 89.207031 40.566406 90.675781 41.308594 C 93.710938 36.804688 97.511719 31.457031 103.484375 31.039062 C 116.050781 30.15625 123.078125 46.0625 114.917969 55.132812 C 111.261719 59.199219 106.039062 62.464844 100.621094 63.488281 C 97.378906 64.097656 93.957031 64.027344 90.675781 64.253906 C 80.296875 64.964844 69.855469 64.691406 59.496094 65.726562 C 52.871094 66.390625 45.6875 67.53125 40.28125 71.730469 C 26.554688 82.386719 36.089844 105.171875 52.585938 105.882812 L 52.585938 106.390625 C 41.683594 106.390625 29.210938 105.402344 19.71875 111.957031 C 12.773438 116.757812 11.222656 126.390625 15.96875 133.367188 C 18.542969 137.148438 22.71875 139.660156 26.96875 141.175781 C 38.960938 145.449219 52.011719 145 64.550781 145 L 133.484375 145 C 139.019531 145 144.375 144.960938 148.457031 149.386719 C 153.898438 155.285156 154.152344 164.640625 148.148438 170.277344 C 141.332031 176.671875 130.535156 174.875 127.152344 165.90625 C 126.035156 162.941406 125.589844 159.621094 125.5625 156.464844 L 110.902344 161.1875 C 110.902344 165.828125 111.839844 170.398438 113.667969 174.675781 C 120.191406 189.917969 140.816406 192.597656 153.878906 184.714844 C 163.261719 179.054688 168.746094 167.675781 167.410156 156.800781 C 166.847656 152.207031 165.597656 147.988281 163.214844 143.988281 C 159 136.914062 151.484375 132.027344 143.429688 130.570312 C 138.667969 129.710938 133.753906 129.996094 128.933594 129.996094 L 63.878906 129.996094 C 55.601562 129.996094 46.660156 130.828125 38.597656 128.621094 C 34.792969 127.578125 30.773438 125.03125 31.027344 120.550781 C 31.316406 115.480469 35.546875 113.054688 40.113281 112.277344 C 48.921875 110.777344 58.167969 111.449219 67.078125 111.449219 C 83.726562 111.449219 100.347656 111.882812 116.96875 112.289062 C 125.332031 112.492188 133.722656 112.269531 142.082031 112.632812 C 147.460938 112.871094 152.867188 112.796875 158.261719 112.796875 C 166.472656 112.796875 174.296875 112.726562 181.351562 107.832031 C 184.496094 105.652344 187.195312 102.996094 189.328125 99.8125 C 200.375 83.34375 191.632812 61.09375 173.261719 54.910156 C 169.796875 53.742188 166.144531 53.042969 162.476562 53.292969 C 155.632812 53.761719 150.140625 57.242188 145.453125 62.046875 C 144.28125 63.25 141.546875 65.871094 141.363281 67.609375 C 141.253906 68.640625 142.945312 69.945312 143.570312 70.644531 C 145.316406 72.601562 147.046875 74.574219 148.773438 76.546875 C 149.644531 77.539062 150.472656 78.84375 151.6875 79.414062 C 153.601562 75.816406 156.59375 72.21875 160.285156 70.371094 C 167.742188 66.640625 176.515625 71.839844 178.816406 79.414062 C 180.390625 84.589844 178.496094 90.667969 174.441406 94.203125 C 169.769531 98.273438 164.226562 97.960938 158.429688 97.960938 C 153.984375 97.960938 149.550781 98.128906 145.113281 98.128906 L 71.800781 98.128906 C 64.746094 98.128906 57.132812 97.289062 51.070312 93.347656 C 48.554688 91.71875 45.980469 89.546875 45.253906 86.496094 C 44.347656 82.683594 46.933594 79.476562 50.226562 77.855469 C 55.429688 75.289062 62.609375 75.871094 68.257812 75.871094 L 80.058594 75.871094 C 97.707031 75.871094 118.640625 75.742188 129.609375 59.179688 C 131.515625 56.300781 132.738281 53.15625 133.246094 49.738281 C 135.71875 33.023438 123.054688 18.175781 106.855469 15.5 C 98.347656 14.089844 91.253906 17.683594 84.945312 23.097656 C 83.007812 24.761719 79.726562 27.367188 79.214844 30.011719 Z M 79.214844 30.011719 "/>
<path style=" stroke:none;fill-rule:nonzero;fill:rgb(12.941176%,12.941176%,12.941176%);fill-opacity:1;" d="M 473.265625 45.691406 L 456.75 45.691406 L 454.054688 57.496094 L 470.234375 57.496094 C 466.046875 72.359375 462.789062 87.53125 459.046875 102.511719 C 457.167969 110.03125 454.8125 119.3125 458.65625 126.621094 C 464.414062 137.566406 481.0625 135.433594 490.121094 130.632812 C 492.476562 129.382812 496.582031 127.320312 497.925781 124.933594 C 498.433594 124.039062 497.648438 122.175781 497.441406 121.226562 C 496.773438 118.210938 495.757812 115.03125 495.515625 111.953125 C 493.933594 112.398438 492.429688 114.242188 491.132812 115.253906 C 487.371094 118.1875 481.066406 122.230469 476.132812 119.640625 C 471.488281 117.207031 473.101562 109.988281 473.816406 105.882812 C 475.871094 94.050781 479.601562 82.296875 482.515625 70.644531 L 484.835938 61.371094 C 485.074219 60.40625 485.132812 58.480469 485.863281 57.765625 C 486.707031 56.933594 489.984375 57.496094 491.132812 57.496094 L 506.46875 57.496094 L 509.671875 45.691406 L 488.773438 45.691406 L 493.890625 25.289062 L 496.019531 16.355469 C 491.796875 17.355469 487.574219 19.707031 483.546875 21.347656 C 482.265625 21.867188 479.683594 22.414062 478.804688 23.507812 C 477.683594 24.902344 477.515625 28.109375 477.082031 29.84375 C 475.804688 34.945312 473.695312 40.453125 473.265625 45.691406 M 284.5 51.929688 C 280.363281 49.015625 277.238281 46.023438 272.195312 44.582031 C 261.519531 41.535156 248.519531 43.386719 240.003906 50.796875 C 233.824219 56.179688 230 63.949219 228.757812 71.996094 C 227.929688 77.367188 228.105469 83.097656 230.160156 88.179688 C 230.925781 90.066406 232.003906 91.804688 233.246094 93.40625 C 233.6875 93.980469 234.785156 94.785156 234.699219 95.589844 C 234.601562 96.542969 232.152344 96.644531 231.410156 96.851562 C 228.09375 97.773438 225.179688 99.277344 222.828125 101.835938 C 219.089844 105.910156 219.097656 113.128906 222.828125 117.179688 C 226.179688 120.820312 232.207031 123.148438 237.140625 123.25 L 237.140625 123.925781 C 228.867188 123.925781 220.675781 123.675781 213.207031 127.949219 C 202.792969 133.90625 200.492188 148.726562 208.515625 157.644531 C 212.949219 162.574219 219.375 165.234375 225.679688 166.8125 C 240.78125 170.589844 260.539062 170.3125 273.714844 161.066406 C 280.957031 155.976562 284.5 148.480469 284.5 139.773438 C 284.5 134.921875 283.023438 129.832031 279.273438 126.5 C 274.722656 122.460938 268.808594 120.46875 263.09375 118.695312 C 258.484375 117.261719 253.894531 115.753906 249.273438 114.359375 C 244.851562 113.027344 240.15625 111.78125 236.128906 109.472656 C 234.320312 108.433594 232.34375 106.800781 232.257812 104.535156 C 232.128906 101.011719 235.585938 98.414062 238.992188 98.824219 C 240.105469 98.960938 241.175781 99.8125 242.195312 100.246094 C 244.152344 101.085938 246.175781 101.742188 248.261719 102.175781 C 258.589844 104.3125 270.734375 102.441406 278.601562 94.917969 C 286.363281 87.496094 290.445312 76.820312 289.710938 66.09375 C 289.574219 64.105469 289.21875 62.085938 288.601562 60.191406 C 287.785156 57.6875 286.667969 55.785156 287.625 53.109375 C 289.113281 48.941406 293.597656 47.378906 297.644531 48.1875 C 299.28125 48.515625 300.746094 49.449219 302.363281 49.738281 C 303.75 46.363281 305.1875 43.007812 306.546875 39.621094 C 306.878906 38.789062 308.132812 36.875 307.808594 35.984375 C 307.566406 35.324219 306.15625 35.113281 305.566406 34.964844 C 303.21875 34.375 300.898438 34.226562 298.488281 34.226562 C 292.128906 34.226562 285.863281 37.445312 284.5 44.175781 C 283.980469 46.75 284.898438 49.417969 284.5 51.929688 M 391.019531 103.859375 C 387.410156 104.347656 383.765625 105.527344 380.230469 106.410156 C 379.1875 106.671875 377.074219 106.789062 376.289062 107.546875 C 375.382812 108.417969 376.160156 111.988281 376.308594 113.132812 C 377.074219 119.03125 379.472656 124.4375 384.277344 128.160156 C 389.382812 132.113281 395.96875 133.757812 402.3125 134.222656 C 415.367188 135.183594 430.03125 132.269531 435.414062 118.699219 C 436.296875 116.46875 436.851562 114.011719 437.015625 111.617188 C 437.210938 108.730469 437.125 105.691406 436.589844 102.847656 C 433.867188 88.300781 419.359375 84.265625 408.882812 76.464844 C 403.359375 72.355469 400.839844 64.613281 405.589844 58.84375 C 410.386719 53.019531 421.902344 53.890625 426.722656 59.179688 C 429.730469 62.484375 430.289062 66.867188 430.289062 71.152344 C 434.074219 70.371094 437.828125 69.328125 441.582031 68.390625 C 442.53125 68.152344 445.023438 67.988281 445.621094 67.179688 C 446.324219 66.230469 445.558594 62.992188 445.355469 61.878906 C 444.25 55.800781 440.597656 50.996094 435.34375 47.851562 C 429.734375 44.488281 422.921875 43.332031 416.46875 43.332031 C 406.515625 43.332031 395.558594 45.800781 390.558594 55.472656 C 389.589844 57.34375 388.847656 59.3125 388.394531 61.371094 C 386.101562 71.769531 390.015625 82.023438 398.601562 88.324219 C 403.996094 92.277344 410.503906 94.515625 415.792969 98.613281 C 421.585938 103.101562 423.1875 112.566406 417.96875 118.191406 C 411.941406 124.6875 398.929688 123.253906 393.796875 116.335938 C 391.066406 112.664062 391.019531 108.222656 391.019531 103.859375 M 315.679688 45.691406 C 312.894531 59.1875 309.265625 72.617188 305.925781 85.988281 C 303.546875 95.503906 300.847656 104.953125 300.847656 114.820312 C 300.847656 120.03125 301.949219 125.53125 305.597656 129.484375 C 310.644531 134.960938 320.441406 135.625 327.140625 133.367188 C 336.46875 130.214844 341.90625 119.941406 345.609375 111.449219 C 346.832031 108.640625 348.113281 105.859375 349.253906 103.015625 C 349.730469 101.824219 349.917969 100.367188 351.410156 100.320312 C 348.082031 110.554688 343.65625 121.09375 343.65625 132.015625 L 358.828125 132.015625 C 359.261719 128.59375 359.335938 125.160156 359.914062 121.734375 C 364.199219 96.148438 371.621094 71.089844 376.859375 45.691406 L 365.0625 45.691406 C 364.1875 45.691406 361.613281 45.257812 361.089844 46.082031 C 360.148438 47.566406 360.03125 50.222656 359.605469 51.929688 C 358.40625 56.75 357.292969 61.597656 356.152344 66.429688 C 352.546875 81.636719 349.257812 97.949219 340.675781 111.277344 C 336.90625 117.132812 327.675781 125.921875 320.566406 119.195312 C 319.683594 118.359375 318.941406 117.457031 318.449219 116.335938 C 315.597656 109.859375 318.046875 101.425781 319.664062 94.925781 C 321.292969 88.363281 323.050781 81.804688 324.480469 75.199219 C 326.605469 65.359375 328.964844 55.378906 331.691406 45.691406 L 315.679688 45.691406 M 517.425781 45.691406 C 517.851562 47.476562 517.78125 49.429688 517.960938 51.253906 C 518.382812 55.636719 518.714844 60.027344 519.140625 64.40625 C 520.476562 78.222656 521.511719 92.066406 522.847656 105.882812 C 523.449219 112.113281 524.082031 118.355469 524.519531 124.597656 C 524.679688 126.863281 525.648438 129.976562 525.109375 132.1875 C 524.550781 134.449219 522.222656 136.960938 520.972656 138.929688 C 517.027344 145.15625 513.089844 152.859375 504.785156 153.414062 C 500.84375 153.679688 498.058594 151.484375 494.671875 150.058594 C 493.1875 153.195312 490.808594 156.042969 488.972656 158.996094 C 488.511719 159.734375 487.027344 161.257812 487.226562 162.179688 C 487.386719 162.902344 488.695312 163.414062 489.277344 163.738281 C 491.625 165.042969 494.378906 165.894531 497.03125 166.265625 C 507.917969 167.785156 517.816406 164.371094 525.332031 156.296875 C 531.84375 149.300781 535.875 139.789062 540.492188 131.511719 C 549.105469 116.066406 557.667969 100.589844 566.277344 85.144531 C 571.257812 76.214844 576.265625 67.300781 581.1875 58.335938 C 582.640625 55.6875 584.101562 53.042969 585.585938 50.414062 C 586.433594 48.917969 587.566406 47.34375 588.042969 45.691406 L 577.59375 45.691406 C 576.539062 45.691406 574.375 45.277344 573.472656 45.863281 C 572.390625 46.566406 571.742188 48.800781 571.121094 49.90625 C 569.050781 53.578125 567.015625 57.292969 565.078125 61.035156 C 558.664062 73.441406 551.523438 85.460938 545.277344 97.960938 C 542.492188 103.527344 539.929688 109.21875 537.582031 114.988281 C 537.023438 116.367188 536.222656 120.289062 534.617188 120.550781 C 536.125 115.238281 537.402344 109.902344 537.644531 104.367188 C 537.90625 98.410156 537.0625 92.421875 536.65625 86.496094 C 536.050781 77.667969 535.375 68.847656 534.769531 60.023438 C 534.441406 55.265625 533.773438 50.460938 533.773438 45.691406 Z M 517.425781 45.691406 "/>
<path style=" stroke:none;fill-rule:nonzero;fill:rgb(100%,100%,100%);fill-opacity:1;" d="M 260.230469 53.855469 C 249.355469 55.414062 243.269531 67.675781 243.777344 77.894531 C 243.917969 80.742188 244.230469 83.566406 245.535156 86.15625 C 247.976562 91.011719 253.199219 92.984375 258.375 92.347656 C 269.152344 91.023438 275.945312 77.695312 274.773438 67.609375 C 274.523438 65.480469 274.457031 63.402344 273.636719 61.371094 C 271.4375 55.925781 266.011719 53.027344 260.230469 53.855469 M 237.308594 127.199219 C 232.492188 127.832031 227.714844 128.3125 223.65625 131.300781 C 217.769531 135.632812 217.148438 145.0625 222.644531 150.011719 C 230.011719 156.636719 242.296875 157.242188 251.632812 156.078125 C 259.058594 155.15625 267.972656 151.609375 268.5 142.976562 C 268.628906 140.945312 268.328125 138.902344 267.050781 137.246094 C 265.230469 134.882812 262.289062 133.769531 259.554688 132.859375 C 254.90625 131.308594 250.113281 130.128906 245.398438 128.789062 C 242.792969 128.050781 240.054688 126.839844 237.308594 127.199219 Z M 237.308594 127.199219 "/>
</g>
</svg>
