<?xml version="1.0" encoding="UTF-8"?>
<svg xmlns="http://www.w3.org/2000/svg" xmlns:xlink="http://www.w3.org/1999/xlink" width="500px" height="169px" viewBox="0 0 498 169" version="1.1">
<g id="surface1">
<rect x="0" y="0" width="498" height="169" style="fill:rgb(100%,100%,100%);fill-opacity:1;stroke:none;"/>
<path style=" stroke:none;fill-rule:nonzero;fill:rgb(32.54902%,68.627451%,100%);fill-opacity:1;" d="M 65.859375 24.984375 C 68.265625 26.683594 70.351562 28.96875 72.296875 31.160156 C 73.199219 32.179688 74.167969 33.769531 75.386719 34.390625 C 77.910156 30.640625 81.070312 26.1875 86.035156 25.839844 C 96.480469 25.105469 102.324219 38.347656 95.539062 45.898438 C 92.5 49.28125 88.160156 52.003906 83.652344 52.851562 C 80.960938 53.363281 78.113281 53.304688 75.386719 53.492188 C 66.757812 54.082031 58.078125 53.855469 49.464844 54.71875 C 43.957031 55.269531 37.984375 56.21875 33.488281 59.714844 C 22.078125 68.589844 30.003906 87.558594 43.71875 88.148438 L 43.71875 88.570312 C 34.65625 88.570312 24.285156 87.746094 16.394531 93.207031 C 10.621094 97.199219 9.328125 105.21875 13.277344 111.027344 C 15.417969 114.179688 18.890625 116.269531 22.417969 117.527344 C 32.390625 121.085938 43.242188 120.714844 53.667969 120.714844 L 110.976562 120.714844 C 115.578125 120.714844 120.03125 120.683594 123.425781 124.367188 C 127.949219 129.277344 128.160156 137.066406 123.167969 141.757812 C 117.5 147.082031 108.527344 145.585938 105.714844 138.121094 C 104.78125 135.648438 104.414062 132.886719 104.390625 130.257812 L 92.203125 134.1875 C 92.203125 138.054688 92.984375 141.859375 94.503906 145.417969 C 99.925781 158.109375 117.070312 160.339844 127.933594 153.777344 C 135.734375 149.0625 140.292969 139.59375 139.183594 130.539062 C 138.714844 126.714844 137.675781 123.203125 135.695312 119.871094 C 132.191406 113.984375 125.941406 109.914062 119.246094 108.703125 C 115.289062 107.984375 111.199219 108.222656 107.195312 108.222656 L 53.105469 108.222656 C 46.226562 108.222656 38.792969 108.914062 32.089844 107.078125 C 28.925781 106.210938 25.585938 104.089844 25.796875 100.359375 C 26.035156 96.140625 29.550781 94.117188 33.347656 93.472656 C 40.671875 92.222656 48.359375 92.78125 55.769531 92.78125 C 69.609375 92.78125 83.425781 93.140625 97.246094 93.480469 C 104.199219 93.652344 111.175781 93.464844 118.125 93.769531 C 122.597656 93.964844 127.089844 93.90625 131.578125 93.90625 C 138.402344 93.90625 144.910156 93.847656 150.773438 89.773438 C 153.386719 87.957031 155.628906 85.746094 157.40625 83.097656 C 166.585938 69.386719 159.320312 50.863281 144.046875 45.710938 C 141.167969 44.742188 138.132812 44.160156 135.078125 44.367188 C 129.390625 44.757812 124.824219 47.652344 120.929688 51.65625 C 119.953125 52.65625 117.679688 54.839844 117.527344 56.285156 C 117.4375 57.144531 118.84375 58.230469 119.363281 58.8125 C 120.8125 60.441406 122.253906 62.085938 123.6875 63.726562 C 124.414062 64.550781 125.101562 65.640625 126.113281 66.113281 C 127.703125 63.117188 130.1875 60.121094 133.257812 58.585938 C 139.457031 55.480469 146.753906 59.808594 148.664062 66.113281 C 149.972656 70.421875 148.398438 75.480469 145.027344 78.421875 C 141.144531 81.8125 136.535156 81.550781 131.714844 81.550781 C 128.019531 81.550781 124.335938 81.691406 120.648438 81.691406 L 59.691406 81.691406 C 53.828125 81.691406 47.5 80.992188 42.457031 77.714844 C 40.371094 76.355469 38.226562 74.550781 37.625 72.007812 C 36.871094 68.832031 39.019531 66.167969 41.757812 64.816406 C 46.085938 62.679688 52.050781 63.164062 56.75 63.164062 L 66.558594 63.164062 C 81.234375 63.164062 98.636719 63.058594 107.753906 49.269531 C 109.339844 46.871094 110.359375 44.25 110.777344 41.40625 C 112.835938 27.492188 102.304688 15.132812 88.839844 12.902344 C 81.765625 11.730469 75.867188 14.722656 70.621094 19.230469 C 69.011719 20.613281 66.28125 22.785156 65.859375 24.984375 Z M 65.859375 24.984375 "/>
<path style=" stroke:none;fill-rule:nonzero;fill:rgb(12.941176%,12.941176%,12.941176%);fill-opacity:1;" d="M 393.46875 38.039062 L 379.734375 38.039062 L 377.492188 47.863281 L 390.945312 47.863281 C 387.464844 60.238281 384.757812 72.871094 381.644531 85.34375 C 380.082031 91.601562 378.125 99.328125 381.320312 105.414062 C 386.105469 114.523438 399.949219 112.75 407.480469 108.753906 C 409.4375 107.714844 412.847656 105.996094 413.96875 104.011719 C 414.390625 103.261719 413.738281 101.714844 413.5625 100.921875 C 413.011719 98.414062 412.167969 95.765625 411.964844 93.203125 C 410.648438 93.570312 409.398438 95.109375 408.320312 95.949219 C 405.191406 98.390625 399.953125 101.757812 395.851562 99.601562 C 391.988281 97.574219 393.332031 91.566406 393.921875 88.148438 C 395.632812 78.296875 398.734375 68.515625 401.15625 58.8125 L 403.085938 51.09375 C 403.285156 50.289062 403.332031 48.683594 403.9375 48.089844 C 404.640625 47.398438 407.367188 47.863281 408.320312 47.863281 L 421.070312 47.863281 L 423.734375 38.039062 L 406.359375 38.039062 L 410.613281 21.054688 L 412.382812 13.617188 C 408.871094 14.449219 405.363281 16.40625 402.015625 17.769531 C 400.949219 18.207031 398.800781 18.660156 398.070312 19.570312 C 397.140625 20.730469 397 23.402344 396.636719 24.84375 C 395.578125 29.089844 393.824219 33.675781 393.46875 38.039062 M 236.527344 43.234375 C 233.089844 40.804688 230.492188 38.316406 226.300781 37.117188 C 217.425781 34.578125 206.617188 36.121094 199.535156 42.289062 C 194.398438 46.769531 191.21875 53.238281 190.1875 59.9375 C 189.496094 64.410156 189.640625 69.179688 191.351562 73.410156 C 191.988281 74.980469 192.882812 76.425781 193.914062 77.761719 C 194.285156 78.238281 195.195312 78.910156 195.125 79.578125 C 195.046875 80.371094 193.007812 80.457031 192.390625 80.628906 C 189.632812 81.398438 187.210938 82.648438 185.257812 84.78125 C 182.148438 88.171875 182.15625 94.179688 185.257812 97.554688 C 188.042969 100.585938 193.054688 102.523438 197.152344 102.605469 L 197.152344 103.167969 C 190.277344 103.167969 183.46875 102.960938 177.257812 106.519531 C 168.601562 111.476562 166.6875 123.816406 173.355469 131.242188 C 177.042969 135.34375 182.382812 137.5625 187.625 138.875 C 200.183594 142.019531 216.609375 141.789062 227.5625 134.089844 C 233.585938 129.851562 236.527344 123.613281 236.527344 116.363281 C 236.527344 112.324219 235.300781 108.085938 232.183594 105.3125 C 228.402344 101.949219 223.480469 100.292969 218.734375 98.8125 C 214.902344 97.621094 211.085938 96.367188 207.242188 95.207031 C 203.566406 94.097656 199.664062 93.058594 196.3125 91.136719 C 194.808594 90.273438 193.167969 88.914062 193.097656 87.027344 C 192.988281 84.09375 195.863281 81.929688 198.695312 82.273438 C 199.621094 82.386719 200.511719 83.09375 201.359375 83.457031 C 202.984375 84.15625 204.667969 84.699219 206.402344 85.0625 C 214.988281 86.84375 225.085938 85.28125 231.625 79.019531 C 238.078125 72.84375 241.472656 63.953125 240.859375 55.023438 C 240.746094 53.367188 240.449219 51.6875 239.9375 50.109375 C 239.261719 48.023438 238.332031 46.441406 239.128906 44.214844 C 240.367188 40.746094 244.09375 39.441406 247.457031 40.117188 C 248.820312 40.390625 250.035156 41.167969 251.382812 41.40625 C 252.53125 38.597656 253.726562 35.804688 254.855469 32.984375 C 255.132812 32.292969 256.175781 30.699219 255.90625 29.957031 C 255.707031 29.40625 254.535156 29.230469 254.042969 29.109375 C 252.09375 28.617188 250.160156 28.496094 248.160156 28.496094 C 242.871094 28.496094 237.664062 31.171875 236.527344 36.777344 C 236.097656 38.917969 236.859375 41.140625 236.527344 43.234375 M 325.085938 86.464844 C 322.085938 86.871094 319.054688 87.851562 316.121094 88.589844 C 315.25 88.804688 313.496094 88.902344 312.839844 89.53125 C 312.085938 90.257812 312.734375 93.230469 312.855469 94.183594 C 313.492188 99.097656 315.488281 103.597656 319.480469 106.695312 C 323.726562 109.984375 329.203125 111.355469 334.476562 111.742188 C 345.332031 112.539062 357.519531 110.117188 361.996094 98.816406 C 362.730469 96.960938 363.191406 94.914062 363.328125 92.921875 C 363.492188 90.519531 363.417969 87.988281 362.976562 85.621094 C 360.710938 73.511719 348.652344 70.152344 339.941406 63.660156 C 335.347656 60.234375 333.253906 53.792969 337.203125 48.988281 C 341.1875 44.140625 350.765625 44.863281 354.769531 49.269531 C 357.269531 52.019531 357.734375 55.667969 357.734375 59.234375 C 360.882812 58.582031 364.003906 57.71875 367.125 56.9375 C 367.914062 56.738281 369.984375 56.601562 370.484375 55.925781 C 371.066406 55.136719 370.429688 52.441406 370.261719 51.515625 C 369.34375 46.457031 366.304688 42.453125 361.941406 39.835938 C 357.273438 37.035156 351.613281 36.074219 346.246094 36.074219 C 337.972656 36.074219 328.863281 38.128906 324.703125 46.179688 C 323.898438 47.738281 323.28125 49.378906 322.902344 51.09375 C 321 59.75 324.253906 68.285156 331.394531 73.53125 C 335.875 76.824219 341.289062 78.6875 345.683594 82.097656 C 350.5 85.835938 351.832031 93.714844 347.496094 98.394531 C 342.484375 103.804688 331.667969 102.609375 327.394531 96.851562 C 325.128906 93.792969 325.085938 90.097656 325.085938 86.464844 M 262.453125 38.039062 C 260.136719 49.273438 257.121094 60.457031 254.34375 71.585938 C 252.367188 79.507812 250.121094 87.375 250.121094 95.589844 C 250.121094 99.925781 251.035156 104.507812 254.066406 107.796875 C 258.265625 112.355469 266.410156 112.910156 271.980469 111.027344 C 279.734375 108.40625 284.253906 99.851562 287.335938 92.78125 C 288.351562 90.445312 289.414062 88.128906 290.363281 85.761719 C 290.761719 84.769531 290.917969 83.558594 292.15625 83.515625 C 289.390625 92.039062 285.710938 100.8125 285.710938 109.90625 L 298.324219 109.90625 C 298.683594 107.054688 298.75 104.195312 299.226562 101.34375 C 302.789062 80.042969 308.960938 59.183594 313.316406 38.039062 L 303.507812 38.039062 C 302.78125 38.039062 300.640625 37.675781 300.207031 38.363281 C 299.421875 39.597656 299.324219 41.8125 298.972656 43.234375 C 297.976562 47.246094 297.050781 51.28125 296.097656 55.304688 C 293.101562 67.960938 290.367188 81.542969 283.234375 92.640625 C 280.101562 97.515625 272.425781 104.828125 266.515625 99.230469 C 265.78125 98.535156 265.164062 97.785156 264.753906 96.851562 C 262.382812 91.460938 264.417969 84.4375 265.761719 79.027344 C 267.121094 73.566406 268.582031 68.101562 269.769531 62.601562 C 271.535156 54.414062 273.496094 46.101562 275.761719 38.039062 L 262.453125 38.039062 M 430.179688 38.039062 C 430.53125 39.527344 430.476562 41.152344 430.625 42.671875 C 430.976562 46.320312 431.253906 49.972656 431.605469 53.621094 C 432.714844 65.121094 433.578125 76.648438 434.6875 88.148438 C 435.191406 93.335938 435.714844 98.53125 436.078125 103.730469 C 436.210938 105.613281 437.019531 108.207031 436.566406 110.046875 C 436.105469 111.929688 434.167969 114.023438 433.128906 115.660156 C 429.847656 120.84375 426.574219 127.257812 419.671875 127.71875 C 416.394531 127.941406 414.078125 126.113281 411.261719 124.925781 C 410.027344 127.539062 408.050781 129.90625 406.527344 132.363281 C 406.144531 132.980469 404.90625 134.25 405.074219 135.015625 C 405.207031 135.617188 406.292969 136.042969 406.78125 136.3125 C 408.730469 137.402344 411.019531 138.109375 413.226562 138.417969 C 422.277344 139.683594 430.503906 136.84375 436.753906 130.117188 C 442.167969 124.296875 445.519531 116.375 449.359375 109.484375 C 456.519531 96.625 463.636719 83.742188 470.796875 70.882812 C 474.9375 63.449219 479.097656 56.027344 483.191406 48.566406 C 484.398438 46.363281 485.613281 44.160156 486.847656 41.96875 C 487.550781 40.726562 488.496094 39.414062 488.890625 38.039062 L 480.203125 38.039062 C 479.328125 38.039062 477.527344 37.695312 476.777344 38.183594 C 475.878906 38.765625 475.335938 40.628906 474.820312 41.546875 C 473.101562 44.605469 471.410156 47.695312 469.796875 50.8125 C 464.464844 61.140625 458.527344 71.148438 453.335938 81.550781 C 451.019531 86.1875 448.890625 90.925781 446.9375 95.730469 C 446.472656 96.878906 445.808594 100.144531 444.472656 100.359375 C 445.726562 95.9375 446.789062 91.496094 446.988281 86.886719 C 447.207031 81.929688 446.503906 76.941406 446.167969 72.007812 C 445.664062 64.660156 445.105469 57.316406 444.601562 49.96875 C 444.328125 46.011719 443.773438 42.011719 443.773438 38.039062 Z M 430.179688 38.039062 "/>
<path style=" stroke:none;fill-rule:nonzero;fill:rgb(100%,100%,100%);fill-opacity:1;" d="M 216.351562 44.835938 C 207.308594 46.132812 202.25 56.339844 202.671875 64.847656 C 202.789062 67.21875 203.050781 69.570312 204.132812 71.726562 C 206.164062 75.769531 210.507812 77.410156 214.808594 76.878906 C 223.769531 75.777344 229.417969 64.683594 228.441406 56.285156 C 228.238281 54.515625 228.179688 52.785156 227.496094 51.09375 C 225.667969 46.558594 221.160156 44.148438 216.351562 44.835938 M 197.292969 105.894531 C 193.289062 106.421875 189.320312 106.824219 185.945312 109.308594 C 181.050781 112.914062 180.535156 120.765625 185.105469 124.886719 C 191.226562 130.402344 201.441406 130.90625 209.203125 129.9375 C 215.378906 129.167969 222.789062 126.21875 223.226562 119.03125 C 223.332031 117.335938 223.085938 115.640625 222.023438 114.257812 C 220.507812 112.289062 218.0625 111.367188 215.789062 110.609375 C 211.925781 109.316406 207.941406 108.332031 204.019531 107.21875 C 201.855469 106.605469 199.578125 105.59375 197.292969 105.894531 Z M 197.292969 105.894531 "/>
</g>
</svg>
